<svg width="16" height="17" viewBox="0 0 16 17" fill="none" xmlns="http://www.w3.org/2000/svg">
<g clip-path="url(#clip0_507_7562)">
<path d="M13.9996 1.79883C14.2649 1.79883 14.5192 1.90418 14.7067 2.09172C14.8943 2.27926 14.9996 2.53361 14.9996 2.79883V14.7988C14.9996 15.064 14.8943 15.3184 14.7067 15.5059C14.5192 15.6935 14.2649 15.7988 13.9996 15.7988H1.99963C1.73442 15.7988 1.48006 15.6935 1.29253 15.5059C1.10499 15.3184 0.999634 15.064 0.999634 14.7988V2.79883C0.999634 2.53361 1.10499 2.27926 1.29253 2.09172C1.48006 1.90418 1.73442 1.79883 1.99963 1.79883H13.9996ZM1.99963 0.798828C1.4692 0.798828 0.960493 1.00954 0.58542 1.38461C0.210348 1.75969 -0.000366211 2.2684 -0.000366211 2.79883V14.7988C-0.000366211 15.3293 0.210348 15.838 0.58542 16.213C0.960493 16.5881 1.4692 16.7988 1.99963 16.7988H13.9996C14.5301 16.7988 15.0388 16.5881 15.4138 16.213C15.7889 15.838 15.9996 15.3293 15.9996 14.7988V2.79883C15.9996 2.2684 15.7889 1.75969 15.4138 1.38461C15.0388 1.00954 14.5301 0.798828 13.9996 0.798828H1.99963Z" fill="#55BED2"/>
<path d="M7.99963 4.79883C8.13224 4.79883 8.25942 4.85151 8.35319 4.94527C8.44696 5.03904 8.49963 5.16622 8.49963 5.29883V8.29883H11.4996C11.6322 8.29883 11.7594 8.35151 11.8532 8.44527C11.947 8.53904 11.9996 8.66622 11.9996 8.79883C11.9996 8.93144 11.947 9.05861 11.8532 9.15238C11.7594 9.24615 11.6322 9.29883 11.4996 9.29883H8.49963V12.2988C8.49963 12.4314 8.44696 12.5586 8.35319 12.6524C8.25942 12.7462 8.13224 12.7988 7.99963 12.7988C7.86703 12.7988 7.73985 12.7462 7.64608 12.6524C7.55231 12.5586 7.49963 12.4314 7.49963 12.2988V9.29883H4.49963C4.36703 9.29883 4.23985 9.24615 4.14608 9.15238C4.05231 9.05861 3.99963 8.93144 3.99963 8.79883C3.99963 8.66622 4.05231 8.53904 4.14608 8.44527C4.23985 8.35151 4.36703 8.29883 4.49963 8.29883H7.49963V5.29883C7.49963 5.16622 7.55231 5.03904 7.64608 4.94527C7.73985 4.85151 7.86703 4.79883 7.99963 4.79883Z" fill="#55BED2"/>
</g>
<defs>
<clipPath id="clip0_507_7562">
<rect width="16" height="16" fill="white" transform="translate(0 0.799805)"/>
</clipPath>
</defs>
</svg>
