<svg width="12" height="13" viewBox="0 0 12 13" fill="none" xmlns="http://www.w3.org/2000/svg">
<rect width="12" height="12" transform="translate(0 0.5)" fill="white" fill-opacity="0.01"/>
<g clip-path="url(#clip0_507_5437)">
<rect width="10.5" height="10.5" transform="translate(0.75 1.25)" fill="white" fill-opacity="0.01"/>
<g clip-path="url(#clip1_507_5437)">
<path d="M8.4553 8.03752C9.09074 7.17041 9.37535 6.09534 9.25219 5.0274C9.12902 3.95946 8.60716 2.9774 7.79102 2.2777C6.97488 1.578 5.92464 1.21226 4.85041 1.25365C3.77619 1.29505 2.7572 1.74052 1.99732 2.50094C1.23744 3.26137 0.792696 4.28067 0.752073 5.35493C0.71145 6.42918 1.07794 7.47916 1.77822 8.2948C2.47851 9.11045 3.46094 9.6316 4.52897 9.754C5.597 9.8764 6.67186 9.59102 7.53852 8.95496H7.53786C7.55755 8.98121 7.57855 9.00615 7.60218 9.03043L10.1287 11.557C10.2518 11.6801 10.4187 11.7493 10.5928 11.7494C10.7669 11.7495 10.9339 11.6804 11.057 11.5573C11.1801 11.4343 11.2494 11.2673 11.2494 11.0933C11.2495 10.9192 11.1804 10.7522 11.0573 10.6291L8.53077 8.10249C8.50731 8.07874 8.48208 8.0568 8.4553 8.03687V8.03752ZM8.62461 5.5149C8.62461 5.98889 8.53125 6.45824 8.34987 6.89615C8.16848 7.33406 7.90261 7.73195 7.56745 8.06711C7.23229 8.40227 6.8344 8.66814 6.39649 8.84953C5.95858 9.03091 5.48923 9.12427 5.01524 9.12427C4.54125 9.12427 4.0719 9.03091 3.63399 8.84953C3.19608 8.66814 2.79819 8.40227 2.46302 8.06711C2.12786 7.73195 1.862 7.33406 1.68061 6.89615C1.49922 6.45824 1.40586 5.98889 1.40586 5.5149C1.40586 4.55763 1.78614 3.63957 2.46302 2.96268C3.13991 2.2858 4.05797 1.90552 5.01524 1.90552C5.9725 1.90552 6.89056 2.2858 7.56745 2.96268C8.24434 3.63957 8.62461 4.55763 8.62461 5.5149V5.5149Z" fill="#E9ECEF"/>
</g>
</g>
<defs>
<clipPath id="clip0_507_5437">
<rect width="10.5" height="10.5" fill="white" transform="translate(0.75 1.25)"/>
</clipPath>
<clipPath id="clip1_507_5437">
<rect width="10.5" height="10.5" fill="white" transform="translate(0.75 1.25)"/>
</clipPath>
</defs>
</svg>
